<svg width="15" height="15" viewBox="0 0 15 15" fill="none" xmlns="http://www.w3.org/2000/svg">
<path fill-rule="evenodd" clip-rule="evenodd" d="M13.6619 2L3.11833 2L2.21746 0.307677C2.11634 0.117723 1.92505 0 1.7175 0L0.572501 0C0.256317 0 0 0.268629 0 0.6C0 0.931371 0.256317 1.2 0.5725 1.2H1.38133L2.27038 2.87012L4.32075 7.6247L4.32285 7.62956L4.50345 8.04833L2.44486 10.3496C2.29684 10.5151 2.2505 10.7539 2.3251 10.9668C2.39971 11.1797 2.58249 11.3304 2.79751 11.3561L4.67389 11.5809C7.02089 11.862 9.39082 11.862 11.7378 11.5809L13.6142 11.3561C13.9283 11.3185 14.1539 11.0211 14.118 10.6919C14.0821 10.3626 13.7983 10.1263 13.4842 10.1639L11.6078 10.3886C9.3472 10.6594 7.06451 10.6594 4.8039 10.3886L4.05925 10.2994L5.57018 8.61037C5.58479 8.59403 5.59837 8.57706 5.6109 8.55955L6.18555 8.63791C6.99081 8.74772 7.8048 8.76925 8.61432 8.70215C10.5024 8.54565 12.2523 7.60407 13.474 6.08726L13.9152 5.5394C13.93 5.521 13.9438 5.50169 13.9564 5.48155L14.7788 4.16807C15.3617 3.23706 14.7245 2 13.6619 2ZM5.65346 7.35524C5.5272 7.33802 5.41832 7.25396 5.36516 7.13284L5.36414 7.13049L3.66915 3.2L13.6619 3.2C13.8137 3.2 13.9048 3.37672 13.8215 3.50972L13.018 4.79298L12.599 5.31322C11.5746 6.58511 10.1073 7.37466 8.52404 7.50589C7.79385 7.56641 7.05964 7.54699 6.33329 7.44795L5.65346 7.35524Z" fill="black"/>
<path d="M4.0075 12.6C3.37514 12.6 2.8625 13.1373 2.8625 13.8C2.8625 14.4627 3.37514 15 4.0075 15C4.63987 15 5.15251 14.4627 5.15251 13.8C5.15251 13.1373 4.63987 12.6 4.0075 12.6Z" fill="black"/>
<path d="M11.2592 13.8C11.2592 13.1373 11.7718 12.6 12.4042 12.6C13.0365 12.6 13.5492 13.1373 13.5492 13.8C13.5492 14.4627 13.0365 15 12.4042 15C11.7718 15 11.2592 14.4627 11.2592 13.8Z" fill="black"/>
</svg>
