<svg width="15" height="291" viewBox="0 0 15 291" fill="none" xmlns="http://www.w3.org/2000/svg">
<path d="M8.5 245C8.5 244.724 8.27614 244.5 8 244.5C7.72386 244.5 7.5 244.724 7.5 245L8.5 245ZM7.64645 290.354C7.84171 290.549 8.15829 290.549 8.35356 290.354L11.5355 287.172C11.7308 286.976 11.7308 286.66 11.5355 286.464C11.3403 286.269 11.0237 286.269 10.8284 286.464L8 289.293L5.17157 286.464C4.97631 286.269 4.65973 286.269 4.46447 286.464C4.26921 286.66 4.26921 286.976 4.46447 287.172L7.64645 290.354ZM7.5 245L7.5 290L8.5 290L8.5 245L7.5 245Z" fill="white"/>
<path d="M12 212.466C12 210.681 10.965 209.601 9.3 209.601C8.115 209.601 7.005 210.486 6.84 211.551C6.66 210.651 5.805 209.796 4.545 209.796C2.97 209.796 1.995 210.876 1.995 212.556L1.995 216.666L12 216.666L12 212.466ZM6.48 212.661L6.48 215.811L2.775 215.811L2.775 212.661C2.775 211.371 3.615 210.696 4.635 210.696C5.67 210.696 6.48 211.371 6.48 212.661ZM11.22 212.601L11.22 215.811L7.26 215.811L7.26 212.601C7.26 211.206 8.22 210.501 9.24 210.501C10.455 210.501 11.22 211.281 11.22 212.601ZM12 196.532L6.9 196.532C5.28 196.532 4.575 197.702 4.575 199.172C4.575 200.372 4.98 201.212 5.79 201.962L6.33 201.527C5.58 200.867 5.265 200.162 5.265 199.247C5.265 198.182 5.85 197.312 6.93 197.312L8.4 197.312C7.695 197.942 7.365 198.767 7.365 199.772C7.365 201.032 8.19 202.307 9.765 202.307C11.325 202.307 12.18 201.017 12.18 199.772C12.18 198.767 11.85 197.957 11.145 197.312L12 197.312L12 196.532ZM11.565 199.502C11.565 200.687 10.8 201.482 9.78 201.482C8.745 201.482 7.98 200.687 7.98 199.502C7.98 198.632 8.31 197.822 8.985 197.312L10.575 197.312C11.235 197.822 11.565 198.632 11.565 199.502ZM12 187.765L6.72 187.765C6.09 187.435 5.43 186.445 5.43 185.71C5.43 185.56 5.43 185.455 5.46 185.32L4.605 185.32C4.605 186.325 5.19 187.15 6 187.765L4.755 187.765L4.755 188.545L12 188.545L12 187.765ZM12.18 175.129C12.18 173.869 11.685 173.149 10.935 172.564L10.455 173.104C11.175 173.629 11.475 174.289 11.475 175.084C11.475 176.779 10.11 177.814 8.37 177.814C6.63 177.814 5.28 176.779 5.28 175.084C5.28 174.289 5.565 173.629 6.285 173.104L5.805 172.564C5.07 173.149 4.575 173.869 4.575 175.129C4.575 177.259 6.255 178.639 8.37 178.639C10.485 178.639 12.18 177.259 12.18 175.129ZM12 159.602L6.9 159.602C5.265 159.602 4.575 160.412 4.575 161.882C4.575 162.932 5.22 163.967 5.85 164.492L1.995 164.492L1.995 165.272L12 165.272L12 164.492L6.525 164.492C5.865 164.027 5.28 163.067 5.28 162.137C5.28 161.087 5.67 160.382 7.065 160.382L12 160.382L12 159.602ZM12 146.237L6.9 146.237C5.28 146.237 4.575 147.407 4.575 148.877C4.575 150.077 4.98 150.917 5.79 151.667L6.33 151.232C5.58 150.572 5.265 149.867 5.265 148.952C5.265 147.887 5.85 147.017 6.93 147.017L8.4 147.017C7.695 147.647 7.365 148.472 7.365 149.477C7.365 150.737 8.19 152.012 9.765 152.012C11.325 152.012 12.18 150.722 12.18 149.477C12.18 148.472 11.85 147.662 11.145 147.017L12 147.017L12 146.237ZM11.565 149.207C11.565 150.392 10.8 151.187 9.78 151.187C8.745 151.187 7.98 150.392 7.98 149.207C7.98 148.337 8.31 147.527 8.985 147.017L10.575 147.017C11.235 147.527 11.565 148.337 11.565 149.207ZM12 119.413L6.78 119.413C5.325 119.413 4.575 120.058 4.575 121.393C4.575 122.413 5.265 123.388 5.94 123.793C5.235 123.973 4.575 124.573 4.575 125.698C4.575 126.748 5.385 127.738 5.85 128.038L4.755 128.038L4.755 128.818L12 128.818L12 128.038L6.525 128.038C5.865 127.603 5.28 126.733 5.28 125.953C5.28 124.933 5.91 124.513 6.93 124.513L12 124.513L12 123.718L6.51 123.718C5.85 123.313 5.28 122.428 5.28 121.648C5.28 120.628 5.91 120.193 6.93 120.193L12 120.193L12 119.413ZM12 106.047L6.9 106.047C5.27999 106.047 4.57499 107.217 4.57499 108.687C4.57499 109.887 4.97999 110.727 5.78999 111.477L6.33 111.042C5.57999 110.382 5.26499 109.677 5.26499 108.762C5.26499 107.697 5.84999 106.827 6.92999 106.827L8.39999 106.827C7.695 107.457 7.36499 108.282 7.365 109.287C7.365 110.547 8.19 111.822 9.765 111.822C11.325 111.822 12.18 110.532 12.18 109.287C12.18 108.282 11.85 107.472 11.145 106.827L12 106.827L12 106.047ZM11.565 109.017C11.565 110.202 10.8 110.997 9.78 110.997C8.745 110.997 7.98 110.202 7.98 109.017C7.98 108.147 8.31 107.337 8.985 106.827L10.575 106.827C11.235 107.337 11.565 108.147 11.565 109.017ZM12 92.3893L6.89999 92.3893C5.26499 92.3893 4.57499 93.1993 4.57499 94.6693C4.57499 95.7193 5.21999 96.7543 5.84999 97.2793L1.99499 97.2793L1.99499 98.0593L12 98.0593L12 97.2793L6.52499 97.2793C5.86499 96.8143 5.27999 95.8543 5.27999 94.9243C5.27999 93.8743 5.66999 93.1693 7.06499 93.1693L12 93.1693L12 92.3893ZM12.18 82.2487C12.18 80.4337 11.22 79.5337 10.05 79.5337C7.25999 79.5337 8.36999 84.0937 6.55499 84.0937C5.80499 84.0937 5.23499 83.4187 5.23499 82.2937C5.23499 81.3337 5.62499 80.5537 6.19499 80.1337L5.63999 79.6987C5.05499 80.2237 4.57499 81.0487 4.57499 82.2937C4.57499 83.9287 5.47499 84.8737 6.58499 84.8737C9.19499 84.8737 8.06999 80.2987 10.05 80.2987C10.89 80.2987 11.52 81.0187 11.52 82.2337C11.52 83.2537 11.04 84.1087 10.455 84.5737L11.025 85.0387C11.835 84.3187 12.18 83.4187 12.18 82.2487ZM12 66.304L4.75499 66.304L4.75499 67.084L10.275 67.084C10.92 67.564 11.475 68.509 11.475 69.439C11.475 70.489 11.085 71.194 9.67499 71.194L4.75499 71.194L4.75499 71.974L9.85499 71.974C11.49 71.974 12.18 71.164 12.18 69.694C12.18 68.644 11.595 67.669 10.935 67.084L12 67.084L12 66.304ZM12 57.5434L1.99499 57.5434L1.99499 58.3234L12 58.3234L12 57.5434ZM12.18 46.5054C12.18 44.3604 10.485 43.0104 8.36999 43.0104C6.25499 43.0104 4.57499 44.3604 4.57499 46.5054C4.57499 48.6204 6.25499 49.9704 8.36999 49.9704C10.485 49.9704 12.18 48.6204 12.18 46.5054ZM11.475 46.5054C11.475 48.1854 9.98999 49.1454 8.36999 49.1454C6.76499 49.1454 5.27999 48.1854 5.27999 46.5054C5.27999 44.7954 6.76499 43.8504 8.36999 43.8504C9.98999 43.8504 11.475 44.7954 11.475 46.5054ZM12.18 33.871C12.18 33.271 12 32.926 11.73 32.641L11.13 32.941C11.31 33.106 11.475 33.406 11.475 33.751C11.475 34.261 11.07 34.501 10.485 34.501L5.44499 34.501L5.44499 33.031L4.75499 33.031L4.75499 34.501L2.77499 34.501L2.77499 35.296L4.75499 35.296L4.75499 36.496L5.44499 36.496L5.44499 35.296L10.605 35.296C11.595 35.296 12.18 34.831 12.18 33.871ZM12 24.9852L1.99499 24.9852L1.99499 25.7652L12 25.7652L12 24.9852ZM12 11.6222L6.89999 11.6222C5.27999 11.6222 4.57499 12.7922 4.57499 14.2622C4.57499 15.4622 4.97999 16.3022 5.78999 17.0522L6.32999 16.6172C5.57999 15.9572 5.26499 15.2522 5.26499 14.3372C5.26499 13.2722 5.84999 12.4022 6.92999 12.4022L8.39999 12.4022C7.69499 13.0322 7.36499 13.8572 7.36499 14.8622C7.36499 16.1222 8.18999 17.3972 9.76499 17.3972C11.325 17.3972 12.18 16.1072 12.18 14.8622C12.18 13.8572 11.85 13.0472 11.145 12.4022L12 12.4022L12 11.6222ZM11.565 14.5922C11.565 15.7772 10.8 16.5722 9.77999 16.5722C8.74499 16.5722 7.97999 15.7772 7.97999 14.5922C7.97999 13.7222 8.30999 12.9122 8.98499 12.4022L10.575 12.4022C11.235 12.9122 11.565 13.7222 11.565 14.5922ZM12 2.8549L6.71999 2.8549C6.08999 2.5249 5.42999 1.5349 5.42999 0.799899C5.42999 0.649899 5.42999 0.544899 5.45999 0.409899L4.60499 0.409899C4.60499 1.4149 5.18999 2.2399 5.99999 2.8549L4.75499 2.8549L4.75499 3.6349L12 3.6349L12 2.8549Z" fill="white"/>
</svg>
